<?xml version="1.0" encoding="UTF-8"?>
<svg version="1.1" xmlns="http://www.w3.org/2000/svg" width="500" height="500">
<path d="M0 0 C165 0 330 0 500 0 C500 165 500 330 500 500 C335 500 170 500 0 500 C0 335 0 170 0 0 Z " fill="#FEFEFE" transform="translate(0,0)"/>
<path d="M0 0 C4.05858184 2.1032327 7.489433 3.99068758 10.65136719 7.33642578 C15.12039736 11.06698773 20.23206649 10.31538519 25.7734375 10.1328125 C26.88508774 10.11862274 27.99673798 10.10443298 29.14207458 10.08981323 C32.68543196 10.04207565 36.22691471 9.96112949 39.76953125 9.875 C43.31556458 9.7994962 46.86120942 9.73145871 50.40769958 9.68161011 C52.61164937 9.6496565 54.81544357 9.60248531 57.01869202 9.5383606 C66.32608403 9.38624461 66.32608403 9.38624461 70.20703125 12.75 C76.40476474 21.46556272 78.71177942 32.5192522 81.20703125 42.75 C81.47362549 43.82894531 81.47362549 43.82894531 81.74560547 44.9296875 C82.26865137 47.07491237 82.7741611 49.22322077 83.26953125 51.375 C83.43662598 52.09864746 83.6037207 52.82229492 83.77587891 53.56787109 C84.73551998 57.94228994 85.4176774 62.27576353 85.921875 66.7265625 C87.51832198 80.03687416 89.90115779 87.72768088 99.53417969 97.07519531 C102.53115106 100.07566578 105.19107011 103.31167666 107.83203125 106.625 C108.34056641 107.20056641 108.84910156 107.77613281 109.37304688 108.36914062 C117.60477267 118.7511948 115.51963466 136.85824211 115.5078125 149.5 C115.51172213 151.28702896 115.51606121 153.07405702 115.52079773 154.86108398 C115.52821098 158.59931443 115.52801081 162.33745046 115.52270508 166.07568359 C115.51813026 169.81571666 115.5247836 173.55542018 115.54321289 177.29541016 C115.64183628 197.50328603 115.346333 217.59294914 113.8125 237.75 C113.7185517 238.99682053 113.7185517 238.99682053 113.62270546 240.26882935 C111.67067447 265.55453518 111.67067447 265.55453518 108.20703125 270.75 C98.68477572 272.98315083 88.42433618 272.94601642 78.6875 273.296875 C77.50843079 273.33948456 76.32936157 273.38209412 75.11456299 273.42599487 C62.89411385 273.83756651 50.68330059 273.90408465 38.45703125 273.875 C36.68401642 273.87267365 36.68401642 273.87267365 34.87518311 273.87030029 C-53.01551924 273.73843019 -53.01551924 273.73843019 -93.27099609 271.41064453 C-94.79131041 271.32400333 -96.3116548 271.23788775 -97.83203125 271.15234375 C-98.54777313 271.11171814 -99.26351501 271.07109253 -100.00094604 271.02923584 C-107.05771544 270.66678175 -114.11017591 270.69875114 -121.17422485 270.7900238 C-122.44802505 270.80223717 -122.44802505 270.80223717 -123.74755859 270.81469727 C-124.88395279 270.83150291 -124.88395279 270.83150291 -126.04330444 270.84864807 C-127.79296875 270.75 -127.79296875 270.75 -128.79296875 269.75 C-132.82861053 247.58549866 -131.99343372 224.74672798 -131.98046875 202.3125 C-131.98052485 200.70093791 -131.98058591 199.08937581 -131.98065186 197.47781372 C-131.97478409 178.20114253 -131.84761879 158.94593685 -130.91796875 139.6875 C-130.87876312 138.84905548 -130.8395575 138.01061096 -130.79916382 137.14675903 C-130.54934757 132.00629695 -130.21162173 126.87932611 -129.79296875 121.75 C-129.74212128 121.0597171 -129.6912738 120.3694342 -129.6388855 119.65823364 C-129.00048072 111.49055936 -128.18620511 105.19822191 -122.10546875 99.3125 C-121.56889648 98.73741699 -121.03232422 98.16233398 -120.47949219 97.56982422 C-118.94576371 95.93209064 -117.37997016 94.33595216 -115.79296875 92.75 C-114.36247609 91.30522621 -112.94276773 89.84953158 -111.54296875 88.375 C-111.0015625 87.85164063 -110.46015625 87.32828125 -109.90234375 86.7890625 C-106.98143097 81.42034253 -109.15998368 73.79806918 -110.32421875 68.078125 C-110.64340555 66.42711742 -110.9624102 64.77607462 -111.28125 63.125 C-111.78448283 60.56628846 -112.29129949 58.00835432 -112.80224609 55.45117188 C-114.71771462 45.80867724 -116.41774441 36.64228123 -115.79296875 26.75 C-109.83809633 24.58003486 -104.08991972 23.08915195 -97.81640625 22.21875 C-96.96517181 22.09528198 -96.11393738 21.97181396 -95.23690796 21.84460449 C-88.30708766 20.87649129 -81.35966898 20.18764063 -74.39453125 19.53125 C-71.15975317 19.21134378 -67.92527211 18.88861645 -64.69091797 18.56445312 C-62.49961857 18.353921 -60.30679387 18.15872902 -58.11279297 17.97851562 C-45.10425879 16.89045196 -35.21174758 15.69195753 -25.55737305 6.39941406 C-17.71892058 -1.11298426 -10.12310665 -4.53062116 0 0 Z " fill="#63A4C7" transform="translate(258.79296875,114.25)"/>
<path d="M0 0 C4.63074078 -0.17133181 9.25993259 -0.28243401 13.89337158 -0.36071777 C15.06190674 -0.39528076 16.23044189 -0.42984375 17.43438721 -0.4654541 C19.03636963 -0.47355103 19.03636963 -0.47355103 20.67071533 -0.48181152 C22.06471558 -0.50199341 22.06471558 -0.50199341 23.48687744 -0.52258301 C27.0413442 0.34028814 27.99833317 2.05492565 29.95587158 5.07678223 C34.99976477 15.17571122 37.11811753 26.3712305 39.45587158 37.32678223 C39.64874756 38.2155304 39.84162354 39.10427856 40.04034424 40.0199585 C44.54450309 60.82379789 48.27119972 81.83970669 49.95587158 103.07678223 C50.0443335 103.99459473 50.13279541 104.91240723 50.22393799 105.85803223 C51.91900512 124.94810865 51.91900512 124.94810865 46.11846924 132.11877441 C43.99976881 134.38035943 41.8030182 136.5235917 39.51153564 138.60949707 C37.22770281 140.76358297 35.33215256 143.17526785 33.39337158 145.63928223 C31.05313738 148.52022036 28.70198324 151.38934258 26.30743408 154.22521973 C25.85150879 154.76549805 25.3955835 155.30577637 24.92584229 155.86242676 C23.98715696 156.96409977 23.04032143 158.05887983 22.08551025 159.14660645 C19.75191836 161.82581183 17.66688132 164.4450855 15.84259033 167.49865723 C13.19309071 171.54798389 10.70250307 175.26646268 5.91859436 176.67782593 C3.39605792 177.04187758 0.91139674 177.22826175 -1.63397217 177.36193848 C-2.61987839 177.42943298 -3.60578461 177.49692749 -4.62156677 177.56646729 C-17.78916803 178.37843606 -30.99425089 178.65857883 -44.18443871 178.75885296 C-48.19711807 178.78941159 -52.20709636 178.84042322 -56.21868896 178.94104004 C-60.17482271 179.04007237 -64.1287003 179.08924109 -68.08601952 179.1034317 C-69.57124138 179.11673 -71.05642483 179.14684167 -72.54091835 179.19521332 C-78.62244827 179.38273031 -83.95999918 179.54276958 -89.12258911 175.91137695 C-91.64705654 173.41505983 -93.86531939 170.87601107 -96.04412842 168.07678223 C-97.14219604 166.82142112 -98.24499059 165.57014274 -99.35662842 164.32678223 C-100.17067139 163.3754541 -100.17067139 163.3754541 -101.00115967 162.40490723 C-103.7835917 159.23410514 -106.66523543 156.15989225 -109.54412842 153.07678223 C-118.27754823 143.70346129 -118.27754823 143.70346129 -121.24481201 140.15393066 C-122.50808757 138.69559302 -123.83120456 137.28800787 -125.19403076 135.92224121 C-132.78843719 127.79110777 -134.24318667 120.02804613 -135.91912842 109.32678223 C-136.18678092 107.76894072 -136.45760167 106.21164014 -136.73162842 104.65490723 C-137.26629218 101.60000718 -137.78350003 98.54292362 -138.28875732 95.48303223 C-139.18992445 90.10877774 -140.28988894 84.78064602 -141.41229248 79.44885254 C-142.08978632 75.83310874 -142.5287755 72.23390429 -142.91912842 68.57678223 C-143.68014275 61.75815482 -145.03882833 55.14351055 -146.54412842 48.45178223 C-151.49706341 26.40015702 -151.49706341 26.40015702 -151.04412842 15.07678223 C-139.61393845 12.96633581 -128.08017414 11.64431574 -116.54412842 10.26428223 C-115.46243378 10.1346106 -114.38073914 10.00493896 -113.26626587 9.87133789 C-75.6250081 5.38143079 -37.89407271 1.42338967 0 0 Z " fill="#FDFDFD" transform="translate(298.04412841796875,127.9232177734375)"/>
<path d="M0 0 C4.05858184 2.1032327 7.489433 3.99068758 10.65136719 7.33642578 C15.12039736 11.06698773 20.23206649 10.31538519 25.7734375 10.1328125 C26.88508774 10.11862274 27.99673798 10.10443298 29.14207458 10.08981323 C32.68543196 10.04207565 36.22691471 9.96112949 39.76953125 9.875 C43.31556458 9.7994962 46.86120942 9.73145871 50.40769958 9.68161011 C52.61164937 9.6496565 54.81544357 9.60248531 57.01869202 9.5383606 C66.32608403 9.38624461 66.32608403 9.38624461 70.20703125 12.75 C76.40476474 21.46556272 78.71177942 32.5192522 81.20703125 42.75 C81.47362549 43.82894531 81.47362549 43.82894531 81.74560547 44.9296875 C82.26865137 47.07491237 82.7741611 49.22322077 83.26953125 51.375 C83.43662598 52.09864746 83.6037207 52.82229492 83.77587891 53.56787109 C84.73551998 57.94228994 85.4176774 62.27576353 85.921875 66.7265625 C87.51496083 80.00227772 89.86152211 87.83712944 99.57275391 97.10839844 C102.46988804 100.01851645 104.94326906 103.25967143 107.45703125 106.5 C107.93470947 107.0976416 108.4123877 107.6952832 108.90454102 108.31103516 C112.20703125 112.50352785 112.20703125 112.50352785 112.20703125 114.75 C111.21703125 115.08 110.22703125 115.41 109.20703125 115.75 C107.76900943 117.3410643 106.4037779 118.9986015 105.08203125 120.6875 C100.07876875 126.96000258 94.88444583 133.07258542 89.20703125 138.75 C89.17262939 137.92314697 89.13822754 137.09629395 89.1027832 136.24438477 C87.81908567 107.2805859 83.81522397 79.32851474 77.70703125 51 C77.52179901 50.13036621 77.33656677 49.26073242 77.14572144 48.36474609 C73.98790218 30.24437918 73.98790218 30.24437918 65.20703125 14.75 C62.79009679 14.1652831 62.79009679 14.1652831 60.01953125 14.2890625 C58.41271484 14.29232544 58.41271484 14.29232544 56.7734375 14.2956543 C55.59652344 14.32183838 54.41960937 14.34802246 53.20703125 14.375 C51.33337891 14.39977417 51.33337891 14.39977417 49.421875 14.42504883 C2.68587081 15.26249816 -43.83703308 20.87187697 -90.19140625 26.5144043 C-91.41323105 26.6629184 -92.63505585 26.8114325 -93.89390564 26.96444702 C-96.19131209 27.24451699 -98.48849535 27.52642592 -100.78541565 27.81045532 C-102.30811317 27.99672989 -102.30811317 27.99672989 -103.86157227 28.18676758 C-104.74619644 28.2960408 -105.63082062 28.40531403 -106.54225159 28.51789856 C-108.79296875 28.75 -108.79296875 28.75 -111.79296875 28.75 C-109.79074386 43.230892 -107.54076069 57.59778631 -104.57495117 71.91430664 C-103.36151588 77.80302308 -102.28468213 83.67594948 -101.41796875 89.625 C-100.49450045 95.95786696 -99.32439261 102.22498925 -98.0546875 108.49609375 C-97.89649536 109.27764832 -97.73830322 110.05920288 -97.57531738 110.86444092 C-96.77037184 114.8263865 -95.95511983 118.78598778 -95.12939453 122.74365234 C-94.82578563 124.22101617 -94.522235 125.69839197 -94.21875 127.17578125 C-94.07515549 127.85007675 -93.93156097 128.52437225 -93.78361511 129.21910095 C-92.98648793 133.12413574 -92.65250219 136.76729198 -92.79296875 140.75 C-96.688666 136.90499026 -100.44864269 132.95293514 -104.16796875 128.9375 C-104.74232666 128.3180249 -105.31668457 127.6985498 -105.90844727 127.06030273 C-110.54086019 122.05010843 -115.08388428 116.97570058 -119.47265625 111.75 C-120.28089844 110.7909375 -120.28089844 110.7909375 -121.10546875 109.8125 C-121.57597656 109.24660156 -122.04648438 108.68070312 -122.53125 108.09765625 C-123.77247348 106.61554616 -123.77247348 106.61554616 -125.79296875 105.75 C-124.15969327 101.74367132 -121.35012553 98.90283892 -118.41796875 95.8125 C-116.97650971 94.280468 -115.54033487 92.74544429 -114.12207031 91.19189453 C-112.92350044 89.89160914 -111.68461966 88.62876313 -110.44140625 87.37109375 C-106.91093621 81.75747907 -109.06627366 74.2584711 -110.32421875 68.078125 C-110.64340555 66.42711742 -110.9624102 64.77607462 -111.28125 63.125 C-111.78448283 60.56628846 -112.29129949 58.00835432 -112.80224609 55.45117188 C-114.71771462 45.80867724 -116.41774441 36.64228123 -115.79296875 26.75 C-109.83809633 24.58003486 -104.08991972 23.08915195 -97.81640625 22.21875 C-96.96517181 22.09528198 -96.11393738 21.97181396 -95.23690796 21.84460449 C-88.30708766 20.87649129 -81.35966898 20.18764063 -74.39453125 19.53125 C-71.15975317 19.21134378 -67.92527211 18.88861645 -64.69091797 18.56445312 C-62.49961857 18.353921 -60.30679387 18.15872902 -58.11279297 17.97851562 C-45.10425879 16.89045196 -35.21174758 15.69195753 -25.55737305 6.39941406 C-17.71892058 -1.11298426 -10.12310665 -4.53062116 0 0 Z " fill="#CECECF" transform="translate(258.79296875,114.25)"/>
<path d="M0 0 C4.63405677 0.84655293 6.80869306 3.65377042 9.8125 7.0625 C10.3472998 7.65595215 10.88209961 8.2494043 11.43310547 8.86083984 C12.96503812 10.56562022 14.48502857 12.28014572 16 14 C16.65613281 14.74378906 17.31226563 15.48757812 17.98828125 16.25390625 C19.06330629 17.48287282 20.13377861 18.71583968 21.19921875 19.953125 C24.40686639 23.59912796 27.74297514 27.13182735 31.05859375 30.6796875 C33 33 33 33 33 35 C33.66 35 34.32 35 35 35 C36.28744114 36.45029169 37.50236776 37.96497157 38.6875 39.5 C43.3463239 45.33674372 48.35898897 50.75664165 53.5065918 56.1640625 C56.43148448 59.24183762 59.31423603 62.33390669 62.0859375 65.55078125 C62.98759644 66.51636963 62.98759644 66.51636963 63.9074707 67.50146484 C65.64487715 69.57597395 66.93264947 71.50677307 68.32495117 73.80322266 C72.30763735 79.74509901 76.29364569 84.15152769 83.48016357 85.79669189 C93.14814074 86.88327982 102.83045901 86.52924557 112.53356934 86.14654541 C116.49604339 86.00801073 120.45948372 85.96357239 124.42382812 85.90820312 C132.62881153 85.77454782 140.82047966 85.47846967 149.01715851 85.09143448 C150.91214838 85.00405109 152.80760586 84.92699085 154.70306396 84.85043335 C157.91595815 84.71167076 161.12259972 84.53055004 164.33203125 84.328125 C165.23396713 84.28998184 166.13590302 84.25183868 167.06517029 84.21253967 C172.63818052 83.77787866 175.57933071 82.38035806 179.41822815 78.28491211 C180.87869205 76.53313855 182.24322092 74.81008861 183.44140625 72.8671875 C185.90767703 69.06490152 188.70443932 65.71576796 191.6875 62.3125 C192.60434484 61.23282532 193.51846732 60.15083221 194.4296875 59.06640625 C194.86506836 58.54836426 195.30044922 58.03032227 195.74902344 57.49658203 C198.35874668 54.37448924 200.92904315 51.22041939 203.5 48.06640625 C211.59336152 38.13939251 219.71160601 28.23955178 228.09301758 18.5534668 C230.19672121 16.12011982 232.22858944 13.6924433 234.1484375 11.109375 C235.06496094 10.06523437 235.06496094 10.06523437 236 9 C236.99 9 237.98 9 239 9 C238.60423596 14.05070301 235.88529738 16.90102278 232.625 20.5 C231.52686542 21.74567223 230.42921994 22.99177579 229.33203125 24.23828125 C228.77467285 24.86557129 228.21731445 25.49286133 227.64306641 26.13916016 C225.15795678 28.95364835 222.73274833 31.81723405 220.3125 34.6875 C219.8597168 35.22294434 219.40693359 35.75838867 218.94042969 36.31005859 C213.83749442 42.35572702 208.84414003 48.4903208 203.86328125 54.63671875 C199.60951821 59.86800722 195.27991861 65.02114849 190.875 70.125 C186.4149853 75.29304292 182.10207283 80.54019884 178 86 C181.35701265 93.55767246 187.84252084 99.78159929 193.375 105.8125 C197.89413633 110.77806748 202.00728894 116.00195927 206.1171875 121.3046875 C208.03118606 123.77187992 209.97267203 126.21225895 211.9453125 128.6328125 C219.39981227 137.78761103 226.39407025 147.21242765 233 157 C233.62777344 157.92554688 234.25554687 158.85109375 234.90234375 159.8046875 C235.26457031 160.52914062 235.62679687 161.25359375 236 162 C235.67 162.99 235.34 163.98 235 165 C234.01 165 233.02 165 232 165 C230.7800293 163.63330078 230.7800293 163.63330078 229.57421875 161.6953125 C229.11442627 160.97545166 228.65463379 160.25559082 228.1809082 159.51391602 C227.6880835 158.72557373 227.19525879 157.93723145 226.6875 157.125 C220.34368018 147.28967372 213.32208521 138.12097639 206 129 C205.18660156 127.98292969 204.37320313 126.96585937 203.53515625 125.91796875 C198.9517507 120.25708993 194.21635212 114.73056036 189.46069336 109.21459961 C185.500412 104.61283286 181.64740736 99.93635141 177.83984375 95.20703125 C176.08723326 93.02177442 176.08723326 93.02177442 174.25390625 91.32421875 C173 90 173 90 173 88 C171.98405762 88.15307617 170.96811523 88.30615234 169.92138672 88.46386719 C159.23228392 89.87922719 148.73326664 90.0362215 137.97733307 89.70735168 C133.17046083 89.57054476 128.36199268 89.49694548 123.55391312 89.41529083 C119.42429332 89.33896105 115.30287756 89.22236289 111.17724609 89.02294922 C89.2864827 87.59556865 89.2864827 87.59556865 70.49590111 97.18767929 C66.31154332 101.26240819 62.66737912 105.76925661 59.11395264 110.39831543 C56.1162304 114.08767325 52.65615378 116.99380417 49 120 C47.31384218 121.64694485 45.64429829 123.31126121 44 125 C40.43640017 128.60719127 36.78075144 131.99477889 32.9296875 135.2890625 C30.15754999 137.7469496 27.59449311 140.39623604 24.99609375 143.03515625 C23.07892823 144.92230744 21.10424678 146.68685375 19.0625 148.4375 C16.00378288 151.06269816 13.14399679 153.81849995 10.3125 156.6875 C3.95730163 163.08645189 3.95730163 163.08645189 1 165 C0.01 164.67 -0.98 164.34 -2 164 C-0.68729086 161.09778672 0.71898982 159.03287708 2.9765625 156.79296875 C3.56099121 156.2098291 4.14541992 155.62668945 4.74755859 155.02587891 C5.36711426 154.41921387 5.98666992 153.81254883 6.625 153.1875 C7.25873535 152.56020996 7.8924707 151.93291992 8.54541016 151.28662109 C12.32066235 147.57321076 16.16881805 143.99321365 20.2109375 140.5703125 C22.94501906 138.17052913 25.45263272 135.55590322 28.00390625 132.96484375 C29.92107177 131.07769256 31.89575322 129.31314625 33.9375 127.5625 C37.66616873 124.35920142 41.10939297 120.93339494 44.53125 117.40625 C46.51547475 115.47225879 48.5240821 113.67222192 50.625 111.87109375 C55.83283475 107.35253125 60.64987768 102.4584447 65.5 97.5625 C66.4178125 96.64017578 67.335625 95.71785156 68.28125 94.76757812 C70.52315055 92.51400101 72.762666 90.25810925 75 88 C71.62289504 83.33213874 68.2327662 79.00129269 64.0625 75 C60.50558176 71.51718422 57.14626643 67.97459957 53.91015625 64.1953125 C51.49166527 61.4157789 48.99715811 58.7085822 46.5 56 C42.85555318 52.04166268 39.26085597 48.0482245 35.734375 43.984375 C32.20500535 39.94626738 28.59429369 35.98025811 25 32 C20.23890907 26.72765098 15.48383855 21.45423192 10.83984375 16.078125 C9.44337252 14.50079444 8.01249379 12.95384575 6.56640625 11.421875 C5.74011719 10.54015625 4.91382813 9.6584375 4.0625 8.75 C3.29035156 7.94046875 2.51820313 7.1309375 1.72265625 6.296875 C0 4 0 4 0 0 Z " fill="#476EAA" transform="translate(132,220)"/>
<path d="M0 0 C8.92367321 -0.33297288 8.92367321 -0.33297288 12.640625 1.7578125 C14.953125 4.1953125 14.953125 4.1953125 16.078125 7.6328125 C15.92960301 11.86568925 14.89762627 13.25081123 11.953125 16.1953125 C12.89285156 16.70191406 12.89285156 16.70191406 13.8515625 17.21875 C14.66882813 17.66476563 15.48609375 18.11078125 16.328125 18.5703125 C17.14023438 19.01117188 17.95234375 19.45203125 18.7890625 19.90625 C20.953125 21.1953125 20.953125 21.1953125 22.953125 23.1953125 C23.47862234 27.04895963 23.09901427 28.91974388 21.265625 32.3828125 C17.21927832 37.30404495 12.48395536 38.84823487 6.453125 40.3828125 C5.80214844 40.56005859 5.15117187 40.73730469 4.48046875 40.91992188 C0.89603989 41.8576664 -2.34228708 42.40191452 -6.046875 42.1953125 C-7.72878058 36.66371193 -8.90323528 31.12183336 -9.984375 25.4453125 C-11.38068792 18.26915817 -12.9264568 11.19911806 -15.046875 4.1953125 C-12.26701372 0.96513101 -9.95332245 0.64640986 -5.71875 0.328125 C-3.81171931 0.23333108 -1.90547431 0.12214579 0 0 Z " fill="#F65746" transform="translate(191.046875,175.8046875)"/>
<path d="M0 0 C1.4223999 0.06562134 1.4223999 0.06562134 2.87353516 0.13256836 C3.97786853 5.48501667 5.08050125 10.83781165 6.18164062 16.19091797 C6.55553587 18.00741767 6.92987496 19.82382607 7.3046875 21.64013672 C13.19486939 50.18788496 13.19486939 50.18788496 12.87353516 56.13256836 C8.97783791 52.28755862 5.21786121 48.3355035 1.49853516 44.32006836 C0.92417725 43.70059326 0.34981934 43.08111816 -0.24194336 42.44287109 C-4.87435629 37.43267679 -9.41738037 32.35826894 -13.80615234 27.13256836 C-14.34498047 26.49319336 -14.88380859 25.85381836 -15.43896484 25.19506836 C-15.90947266 24.62916992 -16.37998047 24.06327148 -16.86474609 23.48022461 C-18.10596958 21.99811452 -18.10596958 21.99811452 -20.12646484 21.13256836 C-18.49318936 17.12623968 -15.68362162 14.28540728 -12.75146484 11.19506836 C-11.78377326 10.16657262 -10.81760506 9.13664127 -9.85302734 8.10522461 C-9.38413086 7.61038574 -8.91523438 7.11554688 -8.43212891 6.60571289 C-6.9261149 4.96747351 -6.9261149 4.96747351 -5.14990234 2.25366211 C-3.12646484 0.13256836 -3.12646484 0.13256836 0 0 Z " fill="#65A5C7" transform="translate(153.12646484375,198.867431640625)"/>
<path d="M0 0 C4.66125582 0.84620484 6.67368923 3.66341399 9.5625 7.1875 C10.33835449 8.1151416 10.33835449 8.1151416 11.12988281 9.06152344 C12.76675556 11.03034245 14.38582323 13.01254184 16 15 C16.53802246 15.66016113 17.07604492 16.32032227 17.63037109 17.00048828 C19.17947943 18.90981039 20.71773011 20.82714656 22.25 22.75 C22.72767822 23.34578857 23.20535645 23.94157715 23.69750977 24.55541992 C27 28.76198139 27 28.76198139 27 31 C26.01 31.33 25.02 31.66 24 32 C22.56197818 33.5910643 21.19674665 35.2486015 19.875 36.9375 C14.8717375 43.21000258 9.67741458 49.32258542 4 55 C3.92483154 53.61832642 3.92483154 53.61832642 3.84814453 52.20874023 C3.6551857 48.71382268 3.45693668 45.21928141 3.25537109 41.72485352 C3.16999426 40.22692171 3.08658583 38.72887612 3.00537109 37.23071289 C2.51371792 28.18975738 1.7605415 19.3100063 0.39794922 10.35180664 C-0.01540878 6.87021647 -0.0662509 3.50266821 0 0 Z " fill="#65A5C7" transform="translate(344,198)"/>
<path d="M0 0 C3.90561706 0.04179614 5.91953692 0.14402863 9.4375 1.9375 C11.59119266 4.75958004 12.01065097 6.80204758 12.25 10.3125 C9.85570412 11.82001963 8.48612509 12.31812203 5.625 12.25 C4.84125 11.940625 4.0575 11.63125 3.25 11.3125 C2.54788106 9.66045544 1.88028587 7.99326231 1.25 6.3125 C-0.76707591 5.61923092 -0.76707591 5.61923092 -2.75 5.3125 C-2.60950482 6.79218324 -2.46245174 8.27124516 -2.3125 9.75 C-2.23128906 10.57371094 -2.15007812 11.39742187 -2.06640625 12.24609375 C-1.96069185 14.29912025 -1.96069185 14.29912025 -0.75 15.3125 C0.83126231 15.55554587 2.41509631 15.78195852 4 16 C7.48045375 16.68811263 9.89156062 17.27671949 12.375 19.875 C14.74194035 24.21439065 15.22347997 27.47189317 14.25 32.3125 C12.09985096 35.92167875 10.10132314 37.75152124 6.25 39.3125 C3.55859375 39.6484375 3.55859375 39.6484375 0.6875 39.6875 C-0.26253906 39.71585938 -1.21257812 39.74421875 -2.19140625 39.7734375 C-4.75 39.3125 -4.75 39.3125 -6.5703125 37.484375 C-8.13939887 34.59559348 -8.10195502 32.55048616 -7.75 29.3125 C-5.37216162 26.93466162 -4.02926335 26.72240792 -0.75 26.3125 C-0.09 26.6425 0.57 26.9725 1.25 27.3125 C1.875 30.375 1.875 30.375 2.25 33.3125 C3.24 33.6425 4.23 33.9725 5.25 34.3125 C5.16253716 32.87388706 5.05434652 31.43652492 4.9375 30 C4.87949219 29.19949219 4.82148438 28.39898437 4.76171875 27.57421875 C4.14731315 24.85863978 3.49023828 23.94222289 1.25 22.3125 C-0.88619552 21.70925888 -0.88619552 21.70925888 -3.1875 21.4375 C-6.41739744 20.77994759 -7.67120017 20.37592426 -10.3125 18.25 C-12.29294798 14.2029976 -12.71090263 10.73265209 -11.75 6.3125 C-9.3125 3.3125 -9.3125 3.3125 -6.75 1.3125 C-4.96066124 -0.47683876 -2.4198379 0.05606941 0 0 Z " fill="#F65645" transform="translate(309.75,169.6875)"/>
<path d="M0 0 C4.60829026 2.68330825 8.52222438 5.63095885 12.375 9.3125 C12.375 9.6425 12.375 9.9725 12.375 10.3125 C7.38040803 10.72289277 2.38569336 11.13175029 -2.60913086 11.53930664 C-4.30122101 11.67757705 -5.99327945 11.816236 -7.68530273 11.95532227 C-18.3270719 12.829772 -28.96835361 13.64051337 -39.625 14.3125 C-28.03958547 2.56636296 -16.29583497 -8.44886656 0 0 Z " fill="#67A6C7" transform="translate(261.625,115.6875)"/>
<path d="M0 0 C9.6402439 -0.37804878 9.6402439 -0.37804878 14 2 C16 4 16 4 16.125 6.27734375 C16.04178877 8.04818282 15.95845579 9.81901618 15.875 11.58984375 C15.80800597 14.26544089 15.80800597 14.26544089 18 17 C18.57977821 20.80997107 18.27372261 22.53365777 16.3125 25.875 C11.20382629 29.15226238 5.9190915 28.58522091 0 28 C-1.74073204 26.25926796 -1.13022093 23.86908365 -1.1328125 21.50390625 C-1.13410156 20.38822266 -1.13539063 19.27253906 -1.13671875 18.12304688 C-1.13285156 16.94806641 -1.12898437 15.77308594 -1.125 14.5625 C-1.12886719 13.39138672 -1.13273438 12.22027344 -1.13671875 11.01367188 C-1.13542969 9.89669922 -1.13414062 8.77972656 -1.1328125 7.62890625 C-1.13168457 6.59838135 -1.13055664 5.56785645 -1.12939453 4.50610352 C-1 2 -1 2 0 0 Z " fill="#161616" transform="translate(216,229)"/>
<path d="M0 0 C0.94875 0.04125 1.8975 0.0825 2.875 0.125 C7.35659561 12.07592162 9.52721557 24.37056213 8.875 37.125 C9.74898438 36.87943359 9.74898438 36.87943359 10.640625 36.62890625 C13.73236768 35.9316426 16.71786393 36.06428584 19.875 36.125 C20.205 37.775 20.535 39.425 20.875 41.125 C17.19588656 43.57774229 14.08931141 43.64055057 9.8125 43.875 C9.07966797 43.93042969 8.34683594 43.98585937 7.59179688 44.04296875 C5.68949222 44.15825994 3.78063268 44.14988313 1.875 44.125 C-0.68846286 41.56153714 -0.45350834 40.38149225 -0.65234375 36.8125 C-0.72259766 35.73613281 -0.79285156 34.65976563 -0.86523438 33.55078125 C-0.99493843 31.29829702 -1.12260202 29.0456942 -1.24804688 26.79296875 C-1.65361825 20.6326684 -2.42482364 15.17158314 -4.50610352 9.34375 C-5.21441593 6.80444301 -5.36526356 4.74903884 -5.125 2.125 C-3.125 0.125 -3.125 0.125 0 0 Z " fill="#F65543" transform="translate(247.125,171.875)"/>
<path d="M0 0 C0.94875 0.04125 1.8975 0.0825 2.875 0.125 C6.66855377 12.86050194 8.08070516 24.82273303 7.875 38.125 C8.73351562 37.87943359 8.73351562 37.87943359 9.609375 37.62890625 C11.87063646 37.12597051 13.81506946 37.02400116 16.125 37.0625 C17.98125 37.0934375 17.98125 37.0934375 19.875 37.125 C19.875 38.115 19.875 39.105 19.875 40.125 C13.53109533 42.92378147 7.70137349 43.24269609 0.875 43.125 C-0.7269073 38.0255951 -1.59507157 33.18454487 -2.125 27.875 C-2.66437343 22.85119959 -3.28308613 17.90144514 -4.25 12.9375 C-4.95119251 9.27571691 -5.5089092 5.86811474 -5.125 2.125 C-3.125 0.125 -3.125 0.125 0 0 Z " fill="#F65645" transform="translate(275.125,169.875)"/>
<path d="M0 0 C5.59472115 11.95235881 8.1116288 26.88278019 7 40 C3.5647952 42.29013653 2.014669 42.17842973 -2 42 C-2.07516846 41.351521 -2.15033691 40.70304199 -2.2277832 40.03491211 C-2.58307248 37.00166014 -2.94642132 33.96946902 -3.3125 30.9375 C-3.44350098 29.84671143 -3.57450195 28.75592285 -3.70947266 27.63208008 C-4.63556636 20.19861261 -5.92037505 12.99309945 -7.7421875 5.73046875 C-8 3 -8 3 -6.73828125 1.125 C-4.41394624 -0.37928873 -2.71160564 -0.21985992 0 0 Z " fill="#F65645" transform="translate(227,173)"/>
<path d="M0 0 C0.99 0 1.98 0 3 0 C3 10.23 3 20.46 3 31 C-1.26720303 32.06680076 -3.74148676 31.92913016 -8 31 C-10.14819529 29.39132842 -10.90629379 28.54712338 -11.36328125 25.87890625 C-11.34652344 25.11449219 -11.32976562 24.35007813 -11.3125 23.5625 C-11.30863281 22.80066406 -11.30476563 22.03882813 -11.30078125 21.25390625 C-10.96494181 18.73729126 -10.3587778 17.14041586 -9 15 C-6 13 -6 13 -2 13 C-1.93941406 12.14535156 -1.87882812 11.29070312 -1.81640625 10.41015625 C-1.73261719 9.30542969 -1.64882813 8.20070312 -1.5625 7.0625 C-1.48128906 5.96035156 -1.40007812 4.85820312 -1.31640625 3.72265625 C-1 1 -1 1 0 0 Z " fill="#181818" transform="translate(285,226)"/>
<path d="M0 0 C0.66 0 1.32 0 2 0 C2 10.56 2 21.12 2 32 C-7.16835017 32 -7.16835017 32 -9.5625 30.0625 C-12.12097585 26.8480047 -12.40606398 26.35058307 -12.1875 22.5 C-11.35771683 18.06214181 -9.71839943 15.68070657 -6 13 C-4.68 13 -3.36 13 -2 13 C-1.93941406 12.14535156 -1.87882812 11.29070312 -1.81640625 10.41015625 C-1.73261719 9.30542969 -1.64882813 8.20070312 -1.5625 7.0625 C-1.48128906 5.96035156 -1.40007812 4.85820312 -1.31640625 3.72265625 C-1 1 -1 1 0 0 Z " fill="#0E0E0E" transform="translate(268,226)"/>
<path d="M0 0 C-2.94755226 3.22685396 -5.82990381 5.19506215 -9.69921875 7.20703125 C-10.8186084 7.790896 -11.93799805 8.37476074 -13.09130859 8.97631836 C-14.28955677 9.58932256 -15.4882967 10.20136639 -16.6875 10.8125 C-17.29104309 11.12236847 -17.89458618 11.43223694 -18.51641846 11.75149536 C-25.87225853 15.52274688 -33.25904139 19.21479799 -40.875 22.4375 C-41.87019653 22.86929565 -41.87019653 22.86929565 -42.88549805 23.30981445 C-46.63436337 24.82168427 -49.12104995 25.24627863 -53 24 C-49.37149139 19.50708214 -44.77080853 18.01011687 -39.5625 15.9375 C-30.72029048 12.31769626 -22.32388418 8.17837682 -14.01782227 3.45483398 C-9.03433866 0.71055576 -5.70647518 -0.60756272 0 0 Z " fill="#CECECE" transform="translate(284,257)"/>
<path d="M0 0 C5.0946377 0.1088175 8.86857261 0.20800083 13.125 3.1875 C15.35744093 6.53616139 15.75502236 8.05710546 15 12 C13.29781752 14.62419798 12.02875145 15.76637133 8.953125 16.46484375 C6.9772303 16.72058899 4.98796405 16.86746906 3 17 C1.65155132 11.3443706 0.63065155 5.7809725 0 0 Z " fill="#FEF9F9" transform="translate(190,196)"/>
<path d="M0 0 C1.32 0 2.64 0 4 0 C4.33 4.29 4.66 8.58 5 13 C5.66 13 6.32 13 7 13 C8.32 8.71 9.64 4.42 11 0 C11.99 0 12.98 0 14 0 C14.07347656 1.37285156 14.07347656 1.37285156 14.1484375 2.7734375 C14.22320312 3.96195313 14.29796875 5.15046875 14.375 6.375 C14.44460937 7.55835938 14.51421875 8.74171875 14.5859375 9.9609375 C14.70217346 13.10562319 14.70217346 13.10562319 17 15 C17 15.99 17 16.98 17 18 C15.865625 17.814375 14.73125 17.62875 13.5625 17.4375 C12.386875 17.293125 11.21125 17.14875 10 17 C9.67 17.33 9.34 17.66 9 18 C6.125 18.375 6.125 18.375 3 18 C-0.11449162 14.11953132 -0.33527125 11.0639513 -0.1875 6.1875 C-0.16042969 5.02605469 -0.13335937 3.86460937 -0.10546875 2.66796875 C-0.07066406 1.78753906 -0.03585938 0.90710938 0 0 Z " fill="#151515" transform="translate(237,239)"/>
<path d="M0 0 C2 2 2 2 2.125 4.625 C2.08375 5.40875 2.0425 6.1925 2 7 C-2.455 8.485 -2.455 8.485 -7 10 C-6.34 11.32 -5.68 12.64 -5 14 C-2.69 14 -0.38 14 2 14 C1.67 15.32 1.34 16.64 1 18 C-6.24528302 18.60377358 -6.24528302 18.60377358 -9.5 16 C-11.41288343 12.17423315 -11.86520829 9.19880492 -11 5 C-7.76810133 -0.06330791 -5.83382602 -1.60430215 0 0 Z " fill="#202020" transform="translate(310,238)"/>
<path d="M0 0 C2.5625 0.25 2.5625 0.25 5.5625 2.25 C5.2325 3.24 4.9025 4.23 4.5625 5.25 C2.9125 4.92 1.2625 4.59 -0.4375 4.25 C-0.4375 5.24 -0.4375 6.23 -0.4375 7.25 C0.531875 7.559375 1.50125 7.86875 2.5 8.1875 C5.5625 9.25 5.5625 9.25 6.5625 10.25 C6.60342937 12.58297433 6.60491723 14.91705225 6.5625 17.25 C3.78828757 19.13646445 2.43010546 19.24303187 -1 19.0625 C-4.29729889 18.28313844 -5.47465497 17.90561386 -7.4375 15.25 C-7.1075 14.26 -6.7775 13.27 -6.4375 12.25 C-5.7775 12.25 -5.1175 12.25 -4.4375 12.25 C-4.1075 12.91 -3.7775 13.57 -3.4375 14.25 C-1.11593403 14.65729228 1.2193787 14.99438677 3.5625 15.25 C3.5625 13.93 3.5625 12.61 3.5625 11.25 C2.44875 11.146875 1.335 11.04375 0.1875 10.9375 C-1.606875 10.5971875 -1.606875 10.5971875 -3.4375 10.25 C-5.4375 7.25 -5.4375 7.25 -5.1875 4.6875 C-4.19222355 1.45285154 -3.43336996 0.35214051 0 0 Z " fill="#1C1C1C" transform="translate(322.4375,237.75)"/>
<path d="M0 0 C7.21153846 -0.48076923 7.21153846 -0.48076923 10.5625 1.5625 C12.58093918 4.98507079 11.87061285 7.22734431 11 11 C8.09399739 12.25664978 6.20395416 13 3 13 C2.49242138 11.58603098 1.99425075 10.16868271 1.5 8.75 C1.08234375 7.56664062 1.08234375 7.56664062 0.65625 6.359375 C0 4 0 4 0 0 Z " fill="#FEF8F7" transform="translate(186,180)"/>
<path d="M0 0 C7.37042925 -0.36248013 7.37042925 -0.36248013 10.0625 1.1875 C11.3945522 3.76280093 10.85352401 5.29717396 10 8 C9 9 9 9 6.93359375 9.09765625 C3.46679688 9.04882812 3.46679688 9.04882812 0 9 C0 6.03 0 3.06 0 0 Z " fill="#F8F8F8" transform="translate(219,244)"/>
<path d="M0 0 C0.66 0 1.32 0 2 0 C2.33 5.28 2.66 10.56 3 16 C2.01 16.33 1.02 16.66 0 17 C-1.13130884 13.60607349 -1.1329194 10.94665128 -1.125 7.375 C-1.12886719 5.62316406 -1.12886719 5.62316406 -1.1328125 3.8359375 C-1 1 -1 1 0 0 Z " fill="#131313" transform="translate(293,239)"/>
<path d="M0 0 C2.0625 0.4375 2.0625 0.4375 4 1 C4.125 4.375 4.125 4.375 4 8 C3.34 8.66 2.68 9.32 2 10 C-0.125 9.625 -0.125 9.625 -2 9 C-1.125 1.125 -1.125 1.125 0 0 Z " fill="#ECECEC" transform="translate(262,243)"/>
<path d="M0 0 C5.625 -0.25 5.625 -0.25 9 2 C9 3.32 9 4.64 9 6 C2.84765625 6.09765625 2.84765625 6.09765625 1 6 C0 5 0 5 -0.0625 2.4375 C-0.041875 1.633125 -0.02125 0.82875 0 0 Z " fill="#F9F9F9" transform="translate(219,233)"/>
<path d="M0 0 C0.99 0 1.98 0 3 0 C3.125 7.75 3.125 7.75 2 10 C0.35 9.67 -1.3 9.34 -3 9 C-2.25 2.25 -2.25 2.25 0 0 Z " fill="#EBEBEB" transform="translate(280,243)"/>
<path d="M0 0 C0.33 0 0.66 0 1 0 C1.33 4.29 1.66 8.58 2 13 C1.67 12.34 1.34 11.68 1 11 C-0.32 11.33 -1.64 11.66 -3 12 C-2.67 10.35 -2.34 8.7 -2 7 C-1.34 7 -0.68 7 0 7 C0 4.69 0 2.38 0 0 Z " fill="#BFBFBF" transform="translate(291,243)"/>
<path d="M0 0 C0.33 0 0.66 0 1 0 C1.33 1.98 1.66 3.96 2 6 C2.66 5.67 3.32 5.34 4 5 C4.1875 7.375 4.1875 7.375 4 10 C3.01 10.66 2.02 11.32 1 12 C-0.3271261 8.0186217 -0.06915913 4.14954773 0 0 Z " fill="#CBCBCB" transform="translate(295,239)"/>
</svg>
